<svg width="16" height="16" viewBox="0 0 16 16" xmlns="http://www.w3.org/2000/svg" fill="none">
  <!-- S: top curve right, cross middle, bottom curve left -->
  <path d="M7.2 4.6C6.9 3.8 6.1 3.3 5.2 3.3 4 3.3 3.2 4.1 3.2 5.1c0 1 .7 1.5 1.8 1.9l.8.3c1 .4 1.7 1 1.7 2.1 0 1.2-.9 2.1-2.3 2.1-1.1 0-2-.6-2.3-1.6" stroke="#C8D1DC" stroke-width="1.5" stroke-linecap="round"/>
  <!-- C -->
  <path d="M14.5 5.3c-.4-1.2-1.5-2-2.8-2-1.9 0-3.2 1.5-3.2 3.7 0 2.2 1.3 3.7 3.2 3.7 1.3 0 2.4-.8 2.8-2" stroke="#C8D1DC" stroke-width="1.5" stroke-linecap="round"/>
</svg>
